<svg xmlns="http://www.w3.org/2000/svg" width="60" height="60" viewBox="0 0 60 60"><g id="组_5402" data-name="组 5402" transform="translate(-544 -1155)"><g id="组_5400" data-name="组 5400" transform="translate(544 1155)"><rect id="矩形_4524" width="60" height="60" fill="none" data-name="矩形 4524"/></g><g id="组_5401" data-name="组 5401" transform="translate(554.897 1163.572)"><rect id="矩形_4525" width="38.571" height="12.857" fill="#2c2c2c" data-name="矩形 4525"/><rect id="矩形_4526" width="38.571" height="12.857" fill="#2c2c2c" data-name="矩形 4526" transform="translate(0 15)"/><rect id="矩形_4527" width="38.571" height="12.857" fill="#2c2c2c" data-name="矩形 4527" transform="translate(0 30)"/><rect id="矩形_4528" width="8.754" height="4.286" fill="#00aeef" data-name="矩形 4528" transform="translate(25.519 4.286)"/><circle id="椭圆_343" cx="2.143" cy="2.143" r="2.143" fill="#5b62e8" data-name="椭圆 343" transform="translate(3.869 4.286)"/><circle id="椭圆_344" cx="2.143" cy="2.143" r="2.143" fill="#5b62e8" data-name="椭圆 344" transform="translate(10.506 4.286)"/><rect id="矩形_4529" width="8.754" height="4.286" fill="#00aeef" data-name="矩形 4529" transform="translate(25.727 19.286)"/><circle id="椭圆_345" cx="2.143" cy="2.143" r="2.143" fill="#5b62e8" data-name="椭圆 345" transform="translate(4.077 19.286)"/><circle id="椭圆_346" cx="2.143" cy="2.143" r="2.143" fill="#5b62e8" data-name="椭圆 346" transform="translate(10.714 19.286)"/><rect id="矩形_4530" width="8.754" height="4.286" fill="#00aeef" data-name="矩形 4530" transform="translate(25.519 34.286)"/><circle id="椭圆_347" cx="2.143" cy="2.143" r="2.143" fill="#5b62e8" data-name="椭圆 347" transform="translate(3.869 34.286)"/><circle id="椭圆_348" cx="2.143" cy="2.143" r="2.143" fill="#5b62e8" data-name="椭圆 348" transform="translate(10.506 34.286)"/></g></g></svg>