<svg xmlns="http://www.w3.org/2000/svg" xmlns:xlink="http://www.w3.org/1999/xlink" width="200" height="200" class="icon" p-id="3318" t="1658325887560" version="1.1" viewBox="0 0 1024 1024"><defs><style type="text/css">@font-face{font-family:feedback-iconfont;src:url(//at.alicdn.com/t/font_1031158_u69w8yhxdu.woff2?t=1630033759944) format(&quot;woff2&quot;),url(//at.alicdn.com/t/font_1031158_u69w8yhxdu.woff?t=1630033759944) format(&quot;woff&quot;),url(//at.alicdn.com/t/font_1031158_u69w8yhxdu.ttf?t=1630033759944) format(&quot;truetype&quot;)}</style></defs><path fill="#5B62E8" d="M512 146.285714a256 256 0 0 0-256 256h512a256 256 0 0 0-256-256z" p-id="3319"/><path fill="#172D72" d="M512 402.285714m-182.857143 0a182.857143 182.857143 0 1 0 365.714286 0 182.857143 182.857143 0 1 0-365.714286 0Z" p-id="3320"/><path fill="#172D72" d="M512 402.285714m-182.857143 0a182.857143 182.857143 0 1 0 365.714286 0 182.857143 182.857143 0 1 0-365.714286 0Z" p-id="3321"/><path fill="#E2E5EE" d="M743.131429 512a256 256 0 0 1-462.262858 0H146.285714v365.714286h731.428572V512z" p-id="3322"/></svg>