<svg xmlns="http://www.w3.org/2000/svg" width="60" height="60" viewBox="0 0 60 60"><g id="组_5409" data-name="组 5409" transform="translate(-1161 -1722)"><g id="组_1092" data-name="组 1092" transform="translate(1161 1722)"><rect id="矩形_72" width="60" height="60" fill="none" data-name="矩形 72"/></g><g id="组_5409-2" data-name="组 5409" transform="translate(1007.429 966.85)"><g id="组_1095" data-name="组 1095" transform="translate(162.571 763.7)"><g id="组_1094" data-name="组 1094"><g id="组_1093" data-name="组 1093"><path id="路径_4746" fill="#2c2c2c" d="M115.252,136.118H89.562v42.857h34.285V144.723Z" data-name="路径 4746" transform="translate(-89.562 -136.118)"/></g><rect id="矩形_73" width="10.82" height="4.299" fill="#484dd3" data-name="矩形 73" transform="translate(4.26 8.464)"/><rect id="矩形_74" width="21.454" height="4.299" fill="#484dd3" data-name="矩形 74" transform="translate(4.26 17.062)"/><rect id="矩形_75" width="10.82" height="4.299" fill="#00aeef" data-name="矩形 75" transform="translate(4.26 25.66)"/><path id="路径_4747" fill="#f7f8f9" d="M101.551,136.118l8.6,8.6h-8.571Z" data-name="路径 4747" transform="translate(-77.361 -134.618)"/></g><line id="直线_3" x2="8.595" y2="8.605" fill="#172d72" data-name="直线 3" transform="translate(25.69)"/></g><g id="组_1101" data-name="组 1101" transform="translate(183.571 788.15)"><path id="路径_4736" fill="#484dd3" d="M741.992,472.1a6.885,6.885,0,0,0-12.748,2.245,4.586,4.586,0,0,0,1.039,9.055c.157,0,.312-.008.465-.024h9.405c.154.012.308.024.466.024a5.732,5.732,0,0,0,1.373-11.3Z" data-name="路径 4736" transform="translate(-725.69 -468.646)"/></g><g id="组_1102" data-name="组 1102" transform="translate(191.071 792.65)"><path id="路径_4737" fill="#f7f8f9" d="M736.474,472.991l-3.119,1.8v1.8l1.56-.9v3.621l1.559.9h0v-5.418l1.559-.9Z" data-name="路径 4737" transform="translate(-733.355 -472.991)"/><path id="路径_4738" fill="#f7f8f9" d="M738.3,475.8v3.61l1.566-.9v-3.61Z" data-name="路径 4738" transform="translate(-733.612 -473.089)"/></g></g></g></svg>