<svg xmlns="http://www.w3.org/2000/svg" width="60" height="60" viewBox="0 0 60 60"><g id="组_1096" data-name="组 1096" transform="translate(-83.562 -132.128)"><g id="组_1092" data-name="组 1092" transform="translate(83.562 132.128)"><rect id="矩形_72" width="60" height="60" fill="none" data-name="矩形 72"/></g><g id="组_1095" data-name="组 1095" transform="translate(96.419 140.678)"><g id="组_1094" data-name="组 1094"><g id="组_1093" data-name="组 1093"><path id="路径_4746" fill="#2c2c2c" d="M115.253,136.118H89.562v42.857h34.286V144.723Z" data-name="路径 4746" transform="translate(-89.562 -136.118)"/></g><rect id="矩形_73" width="10.82" height="4.299" fill="#484dd3" data-name="矩形 73" transform="translate(4.26 8.464)"/><rect id="矩形_74" width="21.454" height="4.299" fill="#484dd3" data-name="矩形 74" transform="translate(4.26 17.062)"/><rect id="矩形_75" width="10.82" height="4.299" fill="#00aeef" data-name="矩形 75" transform="translate(4.26 25.661)"/><path id="路径_4747" fill="#f7f8f9" d="M101.551,136.118l8.6,8.6h-8.571Z" data-name="路径 4747" transform="translate(-77.361 -134.618)"/><g id="组_1098" data-name="组 1098" transform="translate(23.65 33.551)"><path id="路径_4743" fill="#f7f8f9" d="M2060.438,153.729V156.6l2.488,1.436,2.488-1.436v-2.873l-2.488-1.436Z" data-name="路径 4743" transform="translate(-2060.438 -152.292)"/><g id="组_1098-2" data-name="组 1098" transform="translate(0.834 0.959)"><path id="路径_4744" fill="#2c2c2c" d="M2098.3,193.923l-1.652.954v.954l.827-.477v1.921l.826.476h0v-2.874l.826-.477Z" data-name="路径 4744" transform="translate(-2096.644 -193.923)"/><path id="路径_4745" fill="#2c2c2c" d="M2204.435,235.913v1.915l.829-.479v-1.915Z" data-name="路径 4745" transform="translate(-2201.952 -234.477)"/></g></g></g><line id="直线_3" x2="8.595" y2="8.605" fill="#172d72" data-name="直线 3" transform="translate(25.69)"/></g></g></svg>